<svg xmlns="http://www.w3.org/2000/svg" xmlns:xlink="http://www.w3.org/1999/xlink" viewBox="0 0 280 250" preserveAspectRatio="xMidYMid" style="display: block; shape-rendering: auto; background: rgb(255, 255, 255);" width="280" height="250"><style type="text/css">
  .ld-text text {
    text-anchor: middle;
    dominant-baseline: middle;
    font-size: 80px;
    opacity: 0;
    user-select: none;
    pointer-events: none;
  }
</style>
<g style="transform-origin:140px 125px;transform:scale(1)" class="ld-text">
<g transform="translate(140,125)">
  <g transform="scale(1.0000) translate(0,0)"><g class="path" style="opacity: 1; transform-origin: -101.84px 0px; transform: matrix3d(0.91, 0, 0, 0, 0, 0.91, 0, 0, 0, 0, 0.91, 0, 0, 0, 0, 1); animation: 1s linear -0.495s infinite normal forwards running animate-s034ng5pmxp; transform-box: view-box;"><path d="M47.76 24.16L61.52 49.12L65.52 49.12L65.52 62.24L43.68 62.24L31.68 37.44L28 40.48L28 49.12L31.84 49.12L31.84 62.24L1.60 62.24L1.60 49.12L5.60 49.12L5.60 13.12L1.60 13.12L1.60 0L31.84 0L31.84 13.12L28 13.12L28 23.68L40.40 13.12L35.36 13.12L35.36 0L65.12 0L65.12 13.12L61.12 13.12L47.76 24.16" style="fill: rgb(204, 0, 0);" transform="translate(-135.400,-31.120)"></path></g><g class="path" style="opacity: 1; transform-origin: -35px 0px; transform: matrix3d(0.91, 0, 0, 0, 0, 0.91, 0, 0, 0, 0, 0.91, 0, 0, 0, 0, 1); animation: 1s linear -0.33s infinite normal forwards running animate-s034ng5pmxp; transform-box: view-box;"><path d="M132.40 0L132.40 13.12L128.40 13.12L128.40 49.12L132.40 49.12L132.40 62.24L102.16 62.24L102.16 49.12L106 49.12L106 35.92L94.80 35.92L94.80 49.12L98.64 49.12L98.64 62.24L68.40 62.24L68.40 49.12L72.40 49.12L72.40 13.12L68.40 13.12L68.40 0L98.64 0L98.64 13.12L94.80 13.12L94.80 25.28L106 25.28L106 13.12L102.16 13.12L102.16 0L132.40 0" style="fill: rgb(0, 0, 0);" transform="translate(-135.400,-31.120)"></path></g><g class="path" style="opacity: 1; transform-origin: 30.84px 0px; transform: matrix3d(0.91, 0, 0, 0, 0, 0.91, 0, 0, 0, 0, 0.91, 0, 0, 0, 0, 1); animation: 1s linear -0.165s infinite normal forwards running animate-s034ng5pmxp; transform-box: view-box;"><path d="M180.80 0L194.32 49.12L197.52 49.12L197.52 62.24L166.16 62.24L166.16 49.12L170.96 49.12L169.68 42.72L158.80 42.72L157.52 49.12L162.32 49.12L162.32 62.24L134.96 62.24L134.96 49.12L138.16 49.12L151.68 0L180.80 0 zM163.84 18.32L160.56 34.24L167.92 34.24L164.64 18.32L163.84 18.32" style="fill: rgb(40, 40, 40);" transform="translate(-135.400,-31.120)"></path></g><g class="path" style="opacity: 1; transform-origin: 100.84px 0px; transform: matrix3d(0.91, 0, 0, 0, 0, 0.91, 0, 0, 0, 0, 0.91, 0, 0, 0, 0, 1); animation: 1s linear 0s infinite normal forwards running animate-s034ng5pmxp; transform-box: view-box;"><path d="M246.16 13.12L246.16 0L272.40 0L272.40 13.12L268.40 13.12L268.40 62.24L245.92 62.24L222.48 26.16L222.48 49.12L226.32 49.12L226.32 62.24L200.08 62.24L200.08 49.12L204.08 49.12L204.08 13.12L200.08 13.12L200.08 0L228.96 0L250 32.08L250 13.12L246.16 13.12" style="fill: rgb(70, 70, 70);" transform="translate(-135.400,-31.120)"></path></g></g><text dy="0.35em" fill="#cc0000" font-family="Alfa Slab One" font-size="80">KHAN</text>
</g>
</g><style type="text/css">@keyframes animate-s034ng5pmxp { 0.00% {transform: translate(0.00px,0.00px) rotate(0.00deg) scale(0.91, 0.91) skew(0deg, 0.00deg) ;opacity: 1.00;}4.00% {transform: translate(0.00px,0.00px) rotate(0.00deg) scale(0.91, 0.91) ;}8.00% {animation-timing-function: cubic-bezier(0.69,0.60,0.35,0.27);transform: translate(0.00px,0.00px) rotate(0.00deg) scale(0.91, 0.91) ;}14.00% {transform: translate(0.00px,0.00px) rotate(0.00deg) scale(0.93, 0.93) ;}18.00% {transform: translate(0.00px,0.00px) rotate(0.00deg) scale(0.94, 0.94) ;}22.00% {animation-timing-function: cubic-bezier(0.67,0.66,0.34,0.33);transform: translate(0.00px,0.00px) rotate(0.00deg) scale(0.96, 0.96) ;}26.00% {transform: translate(0.00px,0.00px) rotate(0.00deg) scale(0.97, 0.97) ;}30.00% {transform: translate(0.00px,0.00px) rotate(0.00deg) scale(0.99, 0.99) ;}34.00% {animation-timing-function: cubic-bezier(0.65,0.71,0.32,0.38);transform: translate(0.00px,0.00px) rotate(0.00deg) scale(1.01, 1.01) ;}40.00% {animation-timing-function: cubic-bezier(0.64,0.74,0.31,0.41);transform: translate(0.00px,0.00px) rotate(0.00deg) scale(1.02, 1.02) ;}46.00% {animation-timing-function: cubic-bezier(0.60,0.91,0.23,0.63);transform: translate(0.00px,0.00px) rotate(0.00deg) scale(1.03, 1.03) ;}50.00% {transform: translate(0.00px,0.00px) rotate(0.00deg) scale(1.03, 1.03) ;}54.00% {transform: translate(0.00px,0.00px) rotate(0.00deg) scale(1.03, 1.03) ;}58.00% {animation-timing-function: cubic-bezier(0.69,0.60,0.35,0.27);transform: translate(0.00px,0.00px) rotate(0.00deg) scale(1.03, 1.03) ;}64.00% {transform: translate(0.00px,0.00px) rotate(0.00deg) scale(1.01, 1.01) ;}68.00% {transform: translate(0.00px,0.00px) rotate(0.00deg) scale(1.00, 1.00) ;}72.00% {animation-timing-function: cubic-bezier(0.67,0.66,0.34,0.33);transform: translate(0.00px,0.00px) rotate(0.00deg) scale(0.98, 0.98) ;}76.00% {animation-timing-function: cubic-bezier(0.66,0.68,0.33,0.35);transform: translate(0.00px,0.00px) rotate(0.00deg) scale(0.97, 0.97) ;}82.00% {animation-timing-function: cubic-bezier(0.65,0.71,0.32,0.38);transform: translate(0.00px,0.00px) rotate(0.00deg) scale(0.94, 0.94) ;}88.00% {animation-timing-function: cubic-bezier(0.65,0.73,0.31,0.40);transform: translate(0.00px,0.00px) rotate(0.00deg) scale(0.92, 0.92) ;}94.00% {animation-timing-function: cubic-bezier(0.63,0.80,0.28,0.48);transform: translate(0.00px,0.00px) rotate(0.00deg) scale(0.91, 0.91) ;}100.00% {animation-timing-function: cubic-bezier(0.63,0.80,0.28,0.48);transform: translate(0.00px,0.00px) rotate(0.00deg) scale(0.91, 0.91) ;} }</style><!-- [ldio] generated by https://loading.io --></svg>