<svg xmlns="http://www.w3.org/2000/svg" viewBox="0 9.470000267028809 131.14999389648438 35.78999710083008" data-asc="0.9052734375" width="131.14999389648438" height="35.78999710083008"><defs/><g><g fill="#000000"><g transform="translate(0, 0)"><path d="M0 45.26L0 9.47L4.74 9.47L4.74 27.22L22.51 9.47L28.93 9.47L13.92 23.97L29.59 45.26L23.34 45.26L10.60 27.15L4.74 32.86L4.74 45.26L0 45.26ZM33.69 45.26L33.69 9.47L38.43 9.47L38.43 24.17L57.03 24.17L57.03 9.47L61.77 9.47L61.77 45.26L57.03 45.26L57.03 28.39L38.43 28.39L38.43 45.26L33.69 45.26ZM65.72 45.26L79.47 9.47L84.57 9.47L99.22 45.26L93.82 45.26L89.65 34.42L74.68 34.42L70.75 45.26L65.72 45.26M76.05 30.57L88.18 30.57L84.45 20.65Q82.74 16.14 81.91 13.23Q81.23 16.67 79.98 20.07L76.05 30.57ZM102.95 45.26L102.95 9.47L107.81 9.47L126.61 37.57L126.61 9.47L131.15 9.47L131.15 45.26L126.29 45.26L107.50 17.14L107.50 45.26L102.95 45.26Z"/></g></g></g></svg>